<?xml version="1.0" standalone="no"?>
<!DOCTYPE svg PUBLIC "-//W3C//DTD SVG 20001102//EN" "http://www.w3.org/TR/2000/CR-SVG-20001102/DTD/svg-20001102.dtd">
<svg xmlns="http://www.w3.org/2000/svg" width="771" x="0" y="0" height="411" id="/home/xdudka00/git/phd/tools/sl/uml/ControlFlow" >
 <rect width="771" x="22" y="14" height="411" transform="translate(-22,-14)" style="stroke:rgb(0,0,0);stroke-width:0;fill:rgb(255,255,255);" />
 <line transform="translate(-22,-14)" style="stroke:rgb(255,0,0);stroke-width:0.9;fill:none;" y1="124" y2="124" x1="424" x2="353" />
 <line transform="translate(-22,-14)" style="stroke:rgb(255,0,0);stroke-width:0.9;fill:none;" y1="361" y2="361" x1="486" x2="293" />
 <line transform="translate(-22,-14)" style="stroke:rgb(255,0,0);stroke-width:0.9;fill:none;" y1="235" y2="306" x1="577" x2="577" />
 <line transform="translate(-22,-14)" style="stroke:rgb(255,0,0);stroke-width:0.9;fill:none;" y1="361" y2="361" x1="668" x2="792" />
 <line transform="translate(-22,-14)" style="stroke:rgb(255,0,0);stroke-width:0.9;fill:none;" y1="361" y2="124" x1="792" x2="792" />
 <line transform="translate(-22,-14)" style="stroke:rgb(255,0,0);stroke-width:0.9;fill:none;" y1="124" y2="124" x1="792" x2="730" />
 <polygon points="424 124 414 120 402 124 414 128" transform="translate(-22,-14)" style="stroke:rgb(0,0,0);stroke-width:0;fill:rgb(255,255,255);" />
 <line transform="translate(-22,-14)" style="stroke:rgb(255,0,0);stroke-width:0.9;fill:none;" y1="124" y2="120" x1="424" x2="414" />
 <line transform="translate(-22,-14)" style="stroke:rgb(255,0,0);stroke-width:0.9;fill:none;" y1="120" y2="124" x1="414" x2="402" />
 <line transform="translate(-22,-14)" style="stroke:rgb(255,0,0);stroke-width:0.9;fill:none;" y1="124" y2="128" x1="402" x2="414" />
 <line transform="translate(-22,-14)" style="stroke:rgb(255,0,0);stroke-width:0.9;fill:none;" y1="128" y2="124" x1="414" x2="424" />
 <line transform="translate(-22,-14)" style="stroke:rgb(255,0,0);stroke-width:0.9;fill:none;" y1="306" y2="295" x1="577" x2="584" />
 <line transform="translate(-22,-14)" style="stroke:rgb(255,0,0);stroke-width:0.9;fill:none;" y1="306" y2="295" x1="577" x2="570" />
 <line transform="translate(-22,-14)" style="stroke:rgb(255,0,0);stroke-width:0.9;fill:none;" y1="124" y2="131" x1="730" x2="741" />
 <line transform="translate(-22,-14)" style="stroke:rgb(255,0,0);stroke-width:0.9;fill:none;" y1="124" y2="117" x1="730" x2="741" />
 <rect width="331" x="22" y="22" height="204" transform="translate(-22,-14)" style="stroke:rgb(255,0,0);stroke-width:0.9;fill:rgb(255,255,192);" />
 <text x="187" y="37" transform="translate(-22,-14)" style="fill:rgb(0,0,0);stroke-width:0;font-size:10;font-style:normal;font-weight:700;font-family:Arial;" text-anchor="middle" >ControlFlow</text>
 <line transform="translate(-22,-14)" style="stroke:rgb(255,0,0);stroke-width:0.9;fill:rgb(255,255,192);" y1="39" y2="39" x1="22" x2="352" />
 <text x="27" y="54" transform="translate(-22,-14)" style="fill:rgb(0,0,0);stroke-width:0;font-size:10;font-style:normal;font-weight:400;font-family:Arial;" >- bbs_ : TList</text>
 <text x="27" y="71" transform="translate(-22,-14)" style="fill:rgb(0,0,0);stroke-width:0;font-size:10;font-style:normal;font-weight:400;font-family:Arial;" >- d : Private*</text>
 <line transform="translate(-22,-14)" style="stroke:rgb(255,0,0);stroke-width:0.9;fill:rgb(255,255,192);" y1="73" y2="73" x1="22" x2="352" />
 <text x="27" y="88" transform="translate(-22,-14)" style="fill:rgb(0,0,0);stroke-width:0;font-size:10;font-style:normal;font-weight:400;font-family:Arial;" >+ ControlFlow()</text>
 <text x="27" y="105" transform="translate(-22,-14)" style="fill:rgb(0,0,0);stroke-width:0;font-size:10;font-style:normal;font-weight:400;font-family:Arial;" >+ ~ ControlFlow()</text>
 <text x="27" y="122" transform="translate(-22,-14)" style="fill:rgb(0,0,0);stroke-width:0;font-size:10;font-style:normal;font-weight:400;font-family:Arial;" >+ ControlFlow( : const ControlFlow&amp;)</text>
 <text x="27" y="139" transform="translate(-22,-14)" style="fill:rgb(0,0,0);stroke-width:0;font-size:10;font-style:normal;font-weight:400;font-family:Arial;" >+ operator =( : const ControlFlow&amp;) : ControlFlow&amp;</text>
 <text x="27" y="156" transform="translate(-22,-14)" style="fill:rgb(0,0,0);stroke-width:0;font-size:10;font-style:normal;font-weight:400;font-family:Arial;" >+ entry() : const Block*</text>
 <text x="27" y="173" transform="translate(-22,-14)" style="fill:rgb(0,0,0);stroke-width:0;font-size:10;font-style:normal;font-weight:400;font-family:Arial;" >+ operator [ ](name : const char*) : Block*&amp;</text>
 <text x="27" y="190" transform="translate(-22,-14)" style="fill:rgb(0,0,0);stroke-width:0;font-size:10;font-style:normal;font-weight:400;font-family:Arial;" >+ begin() : const_iterator</text>
 <text x="27" y="207" transform="translate(-22,-14)" style="fill:rgb(0,0,0);stroke-width:0;font-size:10;font-style:normal;font-weight:400;font-family:Arial;" >+ end() : const_iterator</text>
 <text x="27" y="224" transform="translate(-22,-14)" style="fill:rgb(0,0,0);stroke-width:0;font-size:10;font-style:normal;font-weight:400;font-family:Arial;" >+ size() : undef</text>
 <rect width="306" x="424" y="14" height="221" transform="translate(-22,-14)" style="stroke:rgb(255,0,0);stroke-width:0.9;fill:rgb(255,255,192);" />
 <text x="577" y="29" transform="translate(-22,-14)" style="fill:rgb(0,0,0);stroke-width:0;font-size:10;font-style:normal;font-weight:700;font-family:Arial;" text-anchor="middle" >Block</text>
 <line transform="translate(-22,-14)" style="stroke:rgb(255,0,0);stroke-width:0.9;fill:rgb(255,255,192);" y1="31" y2="31" x1="424" x2="729" />
 <text x="429" y="46" transform="translate(-22,-14)" style="fill:rgb(0,0,0);stroke-width:0;font-size:10;font-style:normal;font-weight:400;font-family:Arial;" >- insns_ : TList</text>
 <text x="429" y="63" transform="translate(-22,-14)" style="fill:rgb(0,0,0);stroke-width:0;font-size:10;font-style:normal;font-weight:400;font-family:Arial;" >- cfg_ : ControlFlow*</text>
 <text x="429" y="80" transform="translate(-22,-14)" style="fill:rgb(0,0,0);stroke-width:0;font-size:10;font-style:normal;font-weight:400;font-family:Arial;" >- name_ : string</text>
 <line transform="translate(-22,-14)" style="stroke:rgb(255,0,0);stroke-width:0.9;fill:rgb(255,255,192);" y1="82" y2="82" x1="424" x2="729" />
 <text x="429" y="97" transform="translate(-22,-14)" style="fill:rgb(0,0,0);stroke-width:0;font-size:10;font-style:normal;font-weight:400;font-family:Arial;" >+ Block()</text>
 <text x="429" y="114" transform="translate(-22,-14)" style="fill:rgb(0,0,0);stroke-width:0;font-size:10;font-style:normal;font-weight:400;font-family:Arial;" >+ Block(cfg : ControlFlow*, name : const char*)</text>
 <text x="429" y="131" transform="translate(-22,-14)" style="fill:rgb(0,0,0);stroke-width:0;font-size:10;font-style:normal;font-weight:400;font-family:Arial;" >+ name() : const std::string&amp;</text>
 <text x="429" y="148" transform="translate(-22,-14)" style="fill:rgb(0,0,0);stroke-width:0;font-size:10;font-style:normal;font-weight:400;font-family:Arial;" >+ append(insn : const Insn*)</text>
 <text x="429" y="165" transform="translate(-22,-14)" style="fill:rgb(0,0,0);stroke-width:0;font-size:10;font-style:normal;font-weight:400;font-family:Arial;" >+ targets() : const TTargetList&amp;</text>
 <text x="429" y="182" transform="translate(-22,-14)" style="fill:rgb(0,0,0);stroke-width:0;font-size:10;font-style:normal;font-weight:400;font-family:Arial;" >+ begin() : const_iterator</text>
 <text x="429" y="199" transform="translate(-22,-14)" style="fill:rgb(0,0,0);stroke-width:0;font-size:10;font-style:normal;font-weight:400;font-family:Arial;" >+ end() : const_iterator</text>
 <text x="429" y="216" transform="translate(-22,-14)" style="fill:rgb(0,0,0);stroke-width:0;font-size:10;font-style:normal;font-weight:400;font-family:Arial;" >+ size() : undef</text>
 <text x="429" y="233" transform="translate(-22,-14)" style="fill:rgb(0,0,0);stroke-width:0;font-size:10;font-style:normal;font-weight:400;font-family:Arial;" >+ operator [ ](idx : undef) : const Insn*</text>
 <rect width="182" x="486" y="306" height="110" transform="translate(-22,-14)" style="stroke:rgb(255,0,0);stroke-width:0.9;fill:rgb(255,255,192);" />
 <text x="577" y="321" transform="translate(-22,-14)" style="fill:rgb(0,0,0);stroke-width:0;font-size:10;font-style:normal;font-weight:700;font-family:Arial;" text-anchor="middle" >Insn</text>
 <line transform="translate(-22,-14)" style="stroke:rgb(255,0,0);stroke-width:0.9;fill:rgb(255,255,192);" y1="323" y2="323" x1="486" x2="667" />
 <text x="491" y="338" transform="translate(-22,-14)" style="fill:rgb(0,0,0);stroke-width:0;font-size:10;font-style:normal;font-weight:400;font-family:Arial;" >+ code : enum cl_insn_e</text>
 <text x="491" y="355" transform="translate(-22,-14)" style="fill:rgb(0,0,0);stroke-width:0;font-size:10;font-style:normal;font-weight:400;font-family:Arial;" >+ subCode : int</text>
 <text x="491" y="372" transform="translate(-22,-14)" style="fill:rgb(0,0,0);stroke-width:0;font-size:10;font-style:normal;font-weight:400;font-family:Arial;" >+ loc : struct cl_location</text>
 <text x="491" y="389" transform="translate(-22,-14)" style="fill:rgb(0,0,0);stroke-width:0;font-size:10;font-style:normal;font-weight:400;font-family:Arial;" >+ operands : TOperandList</text>
 <text x="491" y="406" transform="translate(-22,-14)" style="fill:rgb(0,0,0);stroke-width:0;font-size:10;font-style:normal;font-weight:400;font-family:Arial;" >+ targets : TTargetList</text>
 <line transform="translate(-22,-14)" style="stroke:rgb(255,0,0);stroke-width:0.9;fill:rgb(255,255,192);" y1="408" y2="408" x1="486" x2="667" />
 <rect width="211" x="82" y="298" height="127" transform="translate(-22,-14)" style="stroke:rgb(255,0,0);stroke-width:0.9;fill:rgb(255,255,192);" />
 <text x="187" y="313" transform="translate(-22,-14)" style="fill:rgb(0,0,0);stroke-width:0;font-size:10;font-style:normal;font-weight:700;font-family:Arial;" text-anchor="middle" >cl_operand</text>
 <line transform="translate(-22,-14)" style="stroke:rgb(255,0,0);stroke-width:0.9;fill:rgb(255,255,192);" y1="315" y2="315" x1="82" x2="292" />
 <text x="87" y="330" transform="translate(-22,-14)" style="fill:rgb(0,0,0);stroke-width:0;font-size:10;font-style:normal;font-weight:400;font-family:Arial;" >+ code : enum cl_operand_e</text>
 <text x="87" y="347" transform="translate(-22,-14)" style="fill:rgb(0,0,0);stroke-width:0;font-size:10;font-style:normal;font-weight:400;font-family:Arial;" >+ loc : struct cl_location</text>
 <text x="87" y="364" transform="translate(-22,-14)" style="fill:rgb(0,0,0);stroke-width:0;font-size:10;font-style:normal;font-weight:400;font-family:Arial;" >+ scope : enum cl_scope_e</text>
 <text x="87" y="381" transform="translate(-22,-14)" style="fill:rgb(0,0,0);stroke-width:0;font-size:10;font-style:normal;font-weight:400;font-family:Arial;" >+ type : struct cl_type*</text>
 <text x="87" y="398" transform="translate(-22,-14)" style="fill:rgb(0,0,0);stroke-width:0;font-size:10;font-style:normal;font-weight:400;font-family:Arial;" >+ accessor : struct cl_accessor*</text>
 <text x="87" y="415" transform="translate(-22,-14)" style="fill:rgb(0,0,0);stroke-width:0;font-size:10;font-style:normal;font-weight:400;font-family:Arial;" >+ data : undef</text>
 <line transform="translate(-22,-14)" style="stroke:rgb(255,0,0);stroke-width:0.9;fill:rgb(255,255,192);" y1="417" y2="417" x1="82" x2="292" />
 <text x="371" y="118" transform="translate(-22,-14)" style="fill:rgb(50,50,50);stroke-width:0;font-size:10;font-style:normal;font-weight:400;font-family:Arial;" text-anchor="middle" >0..1</text>
 <text x="375" y="143" transform="translate(-22,-14)" style="fill:rgb(50,50,50);stroke-width:0;font-size:10;font-style:normal;font-weight:400;font-family:Arial;" text-anchor="middle" >-cfg_</text>
</svg>
